Coordinates
version=1
nRows=14
nColumns=24
inDegrees=yes

Units are S.I. units (second, meters, Newtons, ...)
Angles are in degrees.

endheader
time	pelvis_tilt	pelvis_list	pelvis_rotation	pelvis_tx	pelvis_ty	pelvis_tz	hip_flexion_r	hip_adduction_r	hip_rotation_r	knee_angle_r	ankle_angle_r	subtalar_angle_r	mtp_angle_r	hip_flexion_l	hip_adduction_l	hip_rotation_l	knee_angle_l	ankle_angle_l	subtalar_angle_l	mtp_angle_l	lumbar_extension	lumbar_bending	lumbar_rotation
      3.93000000	    -16.83117435	     -1.57622990	     -2.64651887	     -1.45368626	     -0.00737673	     -0.27122768	      8.38176847	      8.87906098	     12.46465009	     -7.55107325	      5.43778225	     -9.93759704	     -1.29287337	     45.99561901	      0.65004019	      1.64710624	    -50.75656285	     15.93478155	      9.85309506	    -67.39898592	     13.07196621	      0.63080584	      6.12505050
      3.93500000	    -16.76447935	     -1.52590805	     -2.89725483	     -1.44754830	     -0.00767598	     -0.27111816	      7.61485742	      8.79148378	     12.39392746	     -7.09944473	      5.51327929	     -9.62671750	     -1.30571923	     46.19426354	      0.57172636	      1.64346316	    -49.12335130	     15.92853032	      9.98121760	    -67.43427817	     12.93124266	      0.68568466	      6.33494951
      3.94000000	    -16.70377860	     -1.47584331	     -3.14117343	     -1.44139968	     -0.00804659	     -0.27102306	      6.87255503	      8.70178988	     12.28640307	     -6.68072778	      5.60632859	     -9.28096970	     -1.26465407	     46.35873109	      0.49347406	      1.65159951	    -47.41825606	     15.87160521	     10.09429997	    -67.45040627	     12.79407948	      0.73735456	      6.52770148
      3.94500000	    -16.63671148	     -1.42617486	     -3.38167833	     -1.43524750	     -0.00847334	     -0.27095461	      6.14828504	      8.60965371	     12.14363434	     -6.30745374	      5.71682092	     -8.89254302	     -1.16495406	     46.47560725	      0.41524716	      1.67136533	    -45.64527131	     15.78488911	     10.20056393	    -67.44741394	     12.64843323	      0.79036049	      6.71328890
      3.95000000	    -16.57188179	     -1.37949383	     -3.61680941	     -1.42909225	     -0.00896758	     -0.27089565	      5.45183232	      8.52039600	     11.96216166	     -5.98022733	      5.84570214	     -8.46869095	     -0.99872527	     46.55440527	      0.33501237	      1.71571891	    -43.80861080	     15.68732062	     10.32019165	    -67.42308250	     12.50496515	      0.84279739	      6.88951116
      3.95500000	    -16.51710643	     -1.33067235	     -3.84453973	     -1.42292957	     -0.00953201	     -0.27086517	      4.79255728	      8.42730960	     11.75919521	     -5.70057291	      5.98565304	     -8.02408292	     -0.76670807	     46.60343936	      0.25630844	      1.77322648	    -41.90865128	     15.59096859	     10.47140320	    -67.37895114	     12.37181471	      0.89412521	      7.05516337
      3.96000000	    -16.47562250	     -1.27132481	     -4.06383347	     -1.41675405	     -0.01015613	     -0.27085617	      4.17310531	      8.32172757	     11.55156652	     -5.46715882	      6.13454257	     -7.57342276	     -0.47954789	     46.62254930	      0.18420657	      1.83717295	    -39.94195425	     15.50376133	     10.66825197	    -67.32177102	     12.25579071	      0.93381720	      7.21247656
      3.96500000	    -16.42645719	     -1.23048840	     -4.27378480	     -1.41062428	     -0.01083619	     -0.27089642	      3.59212092	      8.23652413	     11.28192697	     -5.31472476	      6.29260575	     -7.09169998	     -0.06000714	     46.59382674	      0.10713698	      1.96956911	    -37.91984168	     15.45859010	     10.90997615	    -67.22575530	     12.11896251	      0.99459577	      7.36990243
      3.97000000	    -16.44336465	     -1.15645790	     -4.48397697	     -1.40445807	     -0.01160683	     -0.27090010	      3.08731646	      8.11931980	     11.11471700	     -5.17112778	      6.42796700	     -6.69581009	      0.31478917	     46.59684611	      0.03344522	      2.06889308	    -35.84206134	     15.39286446	     11.22315877	    -67.15710590	     12.06417435	      1.01797704	      7.52266376
      3.97500000	    -16.49933391	     -1.06874976	     -4.67099934	     -1.39826152	     -0.01247725	     -0.27089131	      2.65837245	      7.99886562	     10.96863346	     -5.09964188	      6.57838177	     -6.39553809	      0.62240791	     46.60274728	     -0.03289243	      2.17004214	    -33.71716360	     15.39272973	     11.63012009	    -67.11008714	     12.06046238	      1.01980279	      7.61125199
      3.98000000	    -16.51977986	     -0.96883291	     -4.88228156	     -1.39212462	     -0.01330827	     -0.27090809	      2.22871603	      7.85794292	     10.81671325	     -5.08283050	      6.75027884	     -6.01337555	      1.00505023	     46.52436829	     -0.09693254	      2.31420379	    -31.53589045	     15.38056307	     12.01521353	    -67.06775965	     12.00573781	      1.01693239	      7.76704284
      3.98500000	    -16.49834768	     -0.89370998	     -5.05426242	     -1.38604102	     -0.01414155	     -0.27098646	      1.80295745	      7.73653812	     10.49947753	     -5.13691543	      6.93065277	     -5.51054503	      1.75332878	     46.37294404	     -0.15184833	      2.56264449	    -29.32956393	     15.38975310	     12.43358982	    -66.98700800	     11.89066261	      1.02110826	      7.87633379
      3.99000000	    -16.62954833	     -0.78656086	     -5.24833542	     -1.37996694	     -0.01516633	     -0.27099507	      1.56557797	      7.60525173	     10.46987313	     -5.24935208	      7.05977944	     -5.32172506	      2.22652937	     46.37096180	     -0.22917374	      2.74419399	    -27.12418746	     15.37422841	     12.89773195	    -66.96786216	     11.94593930	      1.01085589	      8.01152801
      3.99500000	    -16.79107070	     -0.68071562	     -5.42013947	     -1.37377336	     -0.01626812	     -0.27099267	      1.35008943	      7.47677696	     10.46264778	     -5.35823186	      7.17807233	     -5.16295717	      2.50633545	     46.38207432	     -0.30991305	      2.90715754	    -24.93786296	     15.39373476	     13.39614994	    -66.97546466	     12.05847070	      0.99392385	      8.11044913
